<svg width="284" height="126" viewBox="0 0 284 126" fill="none" xmlns="http://www.w3.org/2000/svg">
<path fill-rule="evenodd" clip-rule="evenodd" d="M60.2653 69.038L60.2669 72.6798V73.5853C60.2699 76.9431 60.273 80.7522 60.2653 81.6485C60.2653 82.4695 59.8651 82.8655 59.0524 82.8793C57.4392 82.8931 55.8123 82.8931 54.1991 82.8793C53.3711 82.8793 53 82.4833 53 81.6485V44.1855C53 43.3782 53.3573 43.0252 54.17 43.0252C55.5608 43.0252 56.9516 43.0191 58.3409 43.013H58.3455C61.6638 42.9976 64.9821 42.9823 68.3004 43.0529C75.0781 43.1956 80.1185 48.1848 80.4175 54.9006C80.5739 58.4764 79.89 61.8005 77.55 64.6274C75.1793 67.4972 72.0251 68.883 68.3296 69.0242C66.2932 69.1086 62.1499 69.0595 60.733 69.0426L60.2653 69.038ZM60.2929 63.0865L62.5271 63.0835C63.9839 63.0804 65.4176 63.0773 66.859 63.0865C68.6991 63.1019 70.1988 62.3929 71.3397 60.9948C73.1092 58.8309 73.5662 56.3447 72.8531 53.6851C72.0404 50.6587 69.728 48.9629 66.5876 48.9629H60.3083C60.2929 53.6989 60.2929 58.3505 60.2929 63.0865ZM105.204 81.5641C105.575 82.4695 106.16 82.9775 107.215 82.8931C107.873 82.8363 110.641 82.8793 111.356 82.8931C112.697 82.8931 113.125 82.2562 112.569 81.0407C106.923 68.7081 101.28 56.3708 95.6412 44.0289C95.3284 43.3368 94.8991 43.082 94.1569 43.0958C93.4439 43.1112 93.1295 43.5056 92.8581 44.0857C89.9544 50.3796 87.0471 56.6718 84.136 62.9622L83.8033 63.6835L83.7833 63.7265L83.2712 64.8361C79.7106 72.5371 76.4935 79.4953 75.759 81.099C75.2315 82.2286 75.6746 82.8793 76.9152 82.8793H81.0554C82.2974 82.8793 82.6961 82.6245 83.1669 81.4935L83.5733 80.5328L83.7987 79.9987C84.3768 78.6359 84.9533 77.2731 85.5084 75.895C85.7078 75.4008 85.95 75.189 86.5358 75.189C91.4734 75.2166 96.3957 75.2028 101.333 75.189H101.809C102.335 75.189 102.606 75.3148 102.805 75.8244C103.331 77.135 103.883 78.4395 104.435 79.7424L104.451 79.7762L104.492 79.8759L104.53 79.9665L105.205 81.5625L105.204 81.5641ZM88.5906 69.1792H99.7523C97.866 65.0781 95.9865 60.9739 94.114 56.8665C92.2634 60.9665 90.4223 65.0708 88.5906 69.1792ZM133.589 43.9445C130.705 48.1905 127.808 52.4272 124.897 56.6547C124.808 56.5319 123.767 55.0141 122.379 52.9945C120.297 49.9606 118.211 46.9296 116.12 43.9015C115.892 43.5762 115.464 43.1664 115.108 43.1526C113.157 43.0792 111.205 43.0695 109.253 43.1235C108.468 43.1388 108.07 43.8877 108.382 44.6075C108.447 44.7717 111.935 49.9712 115.473 55.2428L115.487 55.2628C117.437 58.1694 119.403 61.0976 120.814 63.2124C121.044 63.5623 121.166 63.9705 121.171 64.3864C121.18 70.0847 121.185 75.7829 121.185 81.4796C121.185 82.5263 121.527 82.8793 122.583 82.8793H126.937C128.136 82.8793 128.464 82.5539 128.464 81.3799C128.469 75.8044 128.464 70.2259 128.45 64.6412C128.434 64.0352 128.614 63.4401 128.964 62.9454C133.036 57.0038 137.099 51.0564 141.155 45.1032C141.469 44.6505 141.725 44.2131 141.44 43.6606C141.155 43.0958 140.612 43.0958 140.084 43.0958H139.313L138.69 43.1004C137.537 43.1066 136.381 43.1112 135.231 43.082C134.489 43.0667 134.004 43.323 133.59 43.9445H133.589ZM246.21 76.5027C246.178 80.0324 243.275 82.8747 239.716 82.8593C236.157 82.844 233.281 79.9772 233.279 76.4459C233.302 74.7454 233.993 73.1224 235.204 71.929C236.414 70.7355 238.046 70.0679 239.746 70.0709C240.595 70.0672 241.438 70.2312 242.224 70.5535C243.011 70.8758 243.726 71.3501 244.329 71.9493C244.929 72.545 245.405 73.2545 245.728 74.0364C246.051 74.8182 246.215 75.6567 246.21 76.5027ZM245.425 76.5595C245.324 79.6979 242.785 82.1457 239.658 82.0874C238.91 82.0781 238.171 81.9209 237.484 81.6249C236.796 81.3289 236.174 80.8998 235.653 80.3624C235.134 79.8276 234.728 79.1942 234.458 78.4997C234.187 77.8052 234.059 77.0636 234.08 76.3185C234.136 73.2507 236.734 70.806 239.902 70.8628C242.97 70.918 245.511 73.5331 245.425 76.5595ZM240.801 77.0122L241.414 77.8824C241.782 78.4011 242.141 78.9106 242.5 79.4293C241.857 79.6841 241.5 79.4861 241.244 78.9919C241.145 78.8082 241.033 78.6322 240.908 78.4655C240.811 78.3274 240.713 78.1893 240.63 78.0435C240.13 77.1948 239.417 76.914 238.388 77.1687V79.4861C238.15 79.4976 237.912 79.5166 237.675 79.5429V74.0718C237.984 74.0718 238.29 74.0672 238.594 74.0641C239.291 74.0465 239.989 74.0537 240.686 74.0856C241.514 74.1285 241.971 74.6227 242.056 75.3594C242.144 76.0807 241.787 76.6301 241.015 76.9263C240.948 76.9648 240.876 76.9937 240.801 77.0122ZM239.04 76.4091C238.828 76.4063 238.615 76.4047 238.402 76.4045V74.6657C238.609 74.6657 238.815 74.6626 239.017 74.6611C239.514 74.6549 239.997 74.6488 240.472 74.6795C240.988 74.7209 241.33 75.0325 241.316 75.5558C241.3 76.0377 241.015 76.3615 240.515 76.3907C240.031 76.4214 239.546 76.4152 239.04 76.4091Z" fill="#262626"/>
<path fill-rule="evenodd" clip-rule="evenodd" d="M222.288 66.9602C222.486 67.3424 222.656 67.6816 222.826 68.0085C225.089 72.275 227.352 76.5477 229.615 80.8235C229.756 81.0445 229.865 81.2839 229.938 81.534C230.109 82.1863 229.726 82.7542 229.062 82.768C227.083 82.7956 225.102 82.7818 223.123 82.7818C222.53 82.7818 222.346 82.3275 222.148 81.9024C219.928 77.3227 217.694 72.7431 215.502 68.1512C215.233 67.5833 214.922 67.3424 214.272 67.3562C212.763 67.3987 211.254 67.3987 209.746 67.3562C209.124 67.3408 208.941 67.5557 208.941 68.1788C208.956 72.5313 208.956 76.87 208.956 81.2225C208.956 82.5823 208.757 82.7818 207.414 82.7818H203.313C202.224 82.7818 201.928 82.4979 201.928 81.4067V44.3321C201.928 43.353 202.253 43.0123 203.228 43.0123C208.391 43.0123 213.55 42.9847 218.711 43.0123C224.48 43.043 229.188 46.8276 230.207 52.3987C231.296 58.3258 228.849 63.7971 223.108 66.5627C222.829 66.6836 222.556 66.8162 222.288 66.9602ZM209.068 61.5871C209.38 61.5871 215.204 61.5718 217.891 61.5871C218.934 61.5933 219.949 61.2489 220.777 60.608C222.897 59.0195 223.887 55.9854 223.151 53.3073C222.373 50.4573 220.311 48.8688 217.382 48.8688H209.068V61.5871ZM152.545 48.8688V60.0263H165.751C166.869 60.0263 167.194 60.3532 167.194 61.4444V64.563C167.194 65.5421 166.855 65.8829 165.879 65.8829H152.559V77.0404H168.411C169.626 77.0404 169.895 77.3089 169.895 78.529V81.5064C169.895 82.5685 169.57 82.8954 168.509 82.8954C161.821 82.8954 147.2 82.9107 146.593 82.8954C145.894 82.8831 145.536 82.6145 145.434 82.0267C145.419 81.9361 145.405 56.8648 145.405 44.6713C145.405 43.2563 145.645 43.0292 147.03 43.0292H168.297C169.641 43.0292 169.881 43.2701 169.881 44.6452V47.4799C169.881 48.5849 169.583 48.8826 168.453 48.8826C163.461 48.8673 152.913 48.8673 152.545 48.8673V48.8688ZM173.809 62.9177V44.4181C173.809 43.2563 174.064 43 175.209 43H196.843C197.946 43 198.228 43.2855 198.228 44.3628V47.552C198.228 48.5588 197.946 48.8565 196.927 48.8565H181.868C180.836 48.8565 180.836 48.8565 180.836 49.8771C180.836 52.9957 180.851 56.1143 180.821 59.2344C180.821 59.8575 181.006 60.0278 181.629 60.0278C185.7 60.0002 189.787 60.0125 193.859 60.0125C195.344 60.0125 195.542 60.212 195.542 61.6577V64.6351C195.542 65.5299 195.216 65.869 194.298 65.869C192.148 65.8844 183.678 65.8844 181.571 65.869C181.049 65.869 180.823 65.9688 180.823 66.5643C180.85 69.8256 180.85 73.0869 180.823 76.3467C180.823 76.9268 181.035 77.0404 181.571 77.0404C186.62 77.0281 191.653 77.0281 196.702 77.0281C198.031 77.0281 198.228 77.2261 198.228 78.5874V81.5647C198.228 82.57 197.931 82.8831 196.94 82.8831H175.308C174.049 82.8831 173.824 82.6559 173.824 81.4082C173.809 75.2539 173.804 69.092 173.809 62.9208V62.9177Z" fill="#65B3DE"/>
</svg>
